<?xml version="1.0" ?><svg baseProfile="full" height="256" version="1.1" width="256" xmlns="http://www.w3.org/2000/svg" xmlns:ev="http://www.w3.org/2001/xml-events" xmlns:xlink="http://www.w3.org/1999/xlink"><defs/><polygon fill="#BEBEBE" points="65,52 65,83 90,83 90,52" stroke="rgb(0%,0%,0%)" stroke-width="4"/><polygon fill="#BFE3E8" points="76,206 76,227 119,227 119,206" stroke="rgb(0%,0%,0%)" stroke-width="4"/><polygon fill="#BEBEBE" points="143,52 143,96 172,96 172,52" stroke="rgb(0%,0%,0%)" stroke-width="4"/><polygon fill="#FF8C69" points="172,96 172,135 203,135 203,96" stroke="rgb(0%,0%,0%)" stroke-width="4"/><polygon fill="#C67C7B" points="172,135 172,206 198,206 198,135" stroke="rgb(0%,0%,0%)" stroke-width="4"/><polygon fill="#FFD274" points="65,83 65,139 107,139 107,83" stroke="rgb(0%,0%,0%)" stroke-width="4"/><polygon fill="#FFD274" points="76,139 76,206 119,206 119,139" stroke="rgb(0%,0%,0%)" stroke-width="4"/><polygon fill="#EE4D4D" points="90,52 90,83 104,83 107,86 107,139 116,139 119,142 119,206 172,206 172,96 146,96 143,93 143,52" stroke="rgb(0%,0%,0%)" stroke-width="4"/><polygon fill="#D3A2C7" points="79,204 79,208 119,208 119,204" stroke="rgb(0%,0%,0%)" stroke-width="0"/><polygon fill="#D3A2C7" points="67,85 67,81 91,81 91,85" stroke="rgb(0%,0%,0%)" stroke-width="0"/><polygon fill="#D3A2C7" points="170,143 170,155 174,155 174,143" stroke="rgb(0%,0%,0%)" stroke-width="0"/><polygon fill="#D3A2C7" points="170,115 170,135 174,135 174,115" stroke="rgb(0%,0%,0%)" stroke-width="0"/><polygon fill="#D3A2C7" points="141,52 141,67 145,67 145,52" stroke="rgb(0%,0%,0%)" stroke-width="0"/><polygon fill="#D3A2C7" points="141,96 141,99 145,99 145,96" stroke="rgb(0%,0%,0%)" stroke-width="0"/><polygon fill="#D3A2C7" points="141,51 141,67 145,67 145,51" stroke="rgb(0%,0%,0%)" stroke-width="0"/><polygon fill="#D3A2C7" points="107,137 107,141 123,141 123,137" stroke="rgb(0%,0%,0%)" stroke-width="0"/><polygon fill="#D3A2C7" points="95,81 95,85 111,85 111,81" stroke="rgb(0%,0%,0%)" stroke-width="0"/><polygon fill="#727171" points="119,54 119,50 143,50 143,54" stroke="rgb(0%,0%,0%)" stroke-width="0"/></svg>