<?xml version="1.0" encoding="utf-8" ?>
<svg baseProfile="full" height="256" version="1.1" width="256" xmlns="http://www.w3.org/2000/svg" xmlns:ev="http://www.w3.org/2001/xml-events" xmlns:xlink="http://www.w3.org/1999/xlink"><defs /><polygon fill="#BFE3E8" points="128,216 128,238 178,238 178,216" stroke="rgb(0%,0%,0%)" /><polygon fill="#BEBEBE" points="64,99 64,159 87,159 87,99" stroke="rgb(0%,0%,0%)" /><polygon fill="#FF8C69" points="96,29 96,86 123,86 123,29" stroke="rgb(0%,0%,0%)" /><polygon fill="#BEBEBE" points="64,216 64,238 128,238 128,216" stroke="rgb(0%,0%,0%)" /><polygon fill="#C67C7B" points="144,29 144,91 178,91 178,29" stroke="rgb(0%,0%,0%)" /><polygon fill="#FFD274" points="64,159 64,216 128,216 128,159" stroke="rgb(0%,0%,0%)" /><polygon fill="#FFD274" points="128,159 128,216 178,216 178,159" stroke="rgb(0%,0%,0%)" /><polygon fill="#EE4D4D" points="123,29 123,83 120,86 96,86 96,96 93,99 87,99 87,159 178,159 178,91 147,91 144,88 144,29" stroke="rgb(0%,0%,0%)" /><polygon fill="#D3A2C7" points="139,214 139,218 175,218 175,214" stroke="rgb(0%,0%,0%)" /><polygon fill="#D3A2C7" points="128,31 128,27 143,27 143,31" stroke="rgb(0%,0%,0%)" /><polygon fill="#D3A2C7" points="76,214 76,218 111,218 111,214" stroke="rgb(0%,0%,0%)" /><polygon fill="#D3A2C7" points="66,220 66,223 62,223 62,220" stroke="rgb(0%,0%,0%)" /><polygon fill="#D3A2C7" points="127,31 127,27 143,27 143,31" stroke="rgb(0%,0%,0%)" /><polygon fill="#D3A2C7" points="143,93 143,89 167,89 167,93" stroke="rgb(0%,0%,0%)" /><polygon fill="#D3A2C7" points="99,88 99,84 127,84 127,88" stroke="rgb(0%,0%,0%)" /><polygon fill="#D3A2C7" points="89,111 89,127 85,127 85,111" stroke="rgb(0%,0%,0%)" /><polygon fill="#D3A2C7" points="84,101 84,97 95,97 95,101" stroke="rgb(0%,0%,0%)" /><polygon fill="#D3A2C7" points="128,157 128,161 143,161 143,157" stroke="rgb(0%,0%,0%)" /><polygon fill="#D3A2C7" points="83,101 83,97 95,97 95,101" stroke="rgb(0%,0%,0%)" /><polygon fill="#D3A2C7" points="111,157 111,161 127,161 127,157" stroke="rgb(0%,0%,0%)" /><polygon fill="#727171" points="176,103 176,127 180,127 180,103" stroke="rgb(0%,0%,0%)" /></svg>