<?xml version="1.0" encoding="utf-8" ?>
<svg baseProfile="full" height="256" version="1.1" width="256" xmlns="http://www.w3.org/2000/svg" xmlns:ev="http://www.w3.org/2001/xml-events" xmlns:xlink="http://www.w3.org/1999/xlink"><defs /><polygon fill="#BEBEBE" points="64,79 64,107 103,107 103,97 106,94 110,94 110,79" stroke="rgb(0%,0%,0%)" /><polygon fill="#BFE3E8" points="64,208 64,227 126,227 126,208" stroke="rgb(0%,0%,0%)" /><polygon fill="#C67C7B" points="144,25 144,88 172,88 172,25" stroke="rgb(0%,0%,0%)" /><polygon fill="#FFD274" points="64,107 64,143 103,143 103,107" stroke="rgb(0%,0%,0%)" /><polygon fill="#BEBEBE" points="126,143 126,208 160,208 160,143" stroke="rgb(0%,0%,0%)" /><polygon fill="#FFD274" points="64,143 64,208 126,208 126,143" stroke="rgb(0%,0%,0%)" /><polygon fill="#FF8C69" points="172,88 172,140 169,143 160,143 160,186 194,186 194,88" stroke="rgb(0%,0%,0%)" /><polygon fill="#EE4D4D" points="110,25 110,91 107,94 103,94 103,143 172,143 172,88 147,88 144,85 144,25" stroke="rgb(0%,0%,0%)" /><polygon fill="#D3A2C7" points="87,206 87,210 119,210 119,206" stroke="rgb(0%,0%,0%)" /><polygon fill="#D3A2C7" points="75,109 75,105 99,105 99,109" stroke="rgb(0%,0%,0%)" /><polygon fill="#D3A2C7" points="142,27 142,51 146,51 146,27" stroke="rgb(0%,0%,0%)" /><polygon fill="#D3A2C7" points="100,81 100,77 111,77 111,81" stroke="rgb(0%,0%,0%)" /><polygon fill="#D3A2C7" points="170,92 170,115 174,115 174,92" stroke="rgb(0%,0%,0%)" /><polygon fill="#D3A2C7" points="99,81 99,77 111,77 111,81" stroke="rgb(0%,0%,0%)" /><polygon fill="#D3A2C7" points="127,141 127,145 147,145 147,141" stroke="rgb(0%,0%,0%)" /><polygon fill="#D3A2C7" points="107,141 107,145 123,145 123,141" stroke="rgb(0%,0%,0%)" /><polygon fill="#D3A2C7" points="105,107 105,127 101,127 101,107" stroke="rgb(0%,0%,0%)" /><polygon fill="#727171" points="115,27 115,23 143,23 143,27" stroke="rgb(0%,0%,0%)" /></svg>