<?xml version="1.0" ?><svg baseProfile="full" height="256" version="1.1" width="256" xmlns="http://www.w3.org/2000/svg" xmlns:ev="http://www.w3.org/2001/xml-events" xmlns:xlink="http://www.w3.org/1999/xlink"><defs/><polygon fill="#BFE3E8" points="120,196 120,223 159,223 159,196" stroke="rgb(0%,0%,0%)" stroke-width="4"/><polygon fill="#BEBEBE" points="159,196 159,223 203,223 203,196" stroke="rgb(0%,0%,0%)" stroke-width="4"/><polygon fill="#BEBEBE" points="81,87 81,131 109,131 109,87" stroke="rgb(0%,0%,0%)" stroke-width="4"/><polygon fill="#C67C7B" points="177,44 177,131 203,131 203,44" stroke="rgb(0%,0%,0%)" stroke-width="4"/><polygon fill="#FFD274" points="120,131 120,196 159,196 159,131" stroke="rgb(0%,0%,0%)" stroke-width="4"/><polygon fill="#FFD274" points="159,131 159,196 203,196 203,131" stroke="rgb(0%,0%,0%)" stroke-width="4"/><polygon fill="#FF8C69" points="52,36 52,87 109,87 109,36" stroke="rgb(0%,0%,0%)" stroke-width="4"/><polygon fill="#EE4D4D" points="109,36 109,131 177,131 177,44 138,44 135,41 135,36" stroke="rgb(0%,0%,0%)" stroke-width="4"/><polygon fill="#D3A2C7" points="123,194 123,198 159,198 159,194" stroke="rgb(0%,0%,0%)" stroke-width="0"/><polygon fill="#D3A2C7" points="167,194 167,198 199,198 199,194" stroke="rgb(0%,0%,0%)" stroke-width="0"/><polygon fill="#D3A2C7" points="175,48 175,71 179,71 179,48" stroke="rgb(0%,0%,0%)" stroke-width="0"/><polygon fill="#D3A2C7" points="175,108 175,115 179,115 179,108" stroke="rgb(0%,0%,0%)" stroke-width="0"/><polygon fill="#D3A2C7" points="175,47 175,71 179,71 179,47" stroke="rgb(0%,0%,0%)" stroke-width="0"/><polygon fill="#D3A2C7" points="111,59 111,79 107,79 107,59" stroke="rgb(0%,0%,0%)" stroke-width="0"/><polygon fill="#D3A2C7" points="111,87 111,111 107,111 107,87" stroke="rgb(0%,0%,0%)" stroke-width="0"/><polygon fill="#D3A2C7" points="127,129 127,133 151,133 151,129" stroke="rgb(0%,0%,0%)" stroke-width="0"/><polygon fill="#D3A2C7" points="155,129 155,133 175,133 175,129" stroke="rgb(0%,0%,0%)" stroke-width="0"/><polygon fill="#727171" points="155,46 155,42 175,42 175,46" stroke="rgb(0%,0%,0%)" stroke-width="0"/></svg>