<?xml version="1.0" encoding="utf-8" ?>
<svg baseProfile="full" height="256" version="1.1" width="256" xmlns="http://www.w3.org/2000/svg" xmlns:ev="http://www.w3.org/2001/xml-events" xmlns:xlink="http://www.w3.org/1999/xlink"><defs /><polygon fill="#FF8C69" points="80,36 80,51 130,51 130,36" stroke="rgb(0%,0%,0%)" /><polygon fill="#BEBEBE" points="158,83 158,118 183,118 183,83" stroke="rgb(0%,0%,0%)" /><polygon fill="#BFE3E8" points="130,190 130,210 183,210 183,190" stroke="rgb(0%,0%,0%)" /><polygon fill="#FFD274" points="130,83 130,118 158,118 158,83" stroke="rgb(0%,0%,0%)" /><polygon fill="#BEBEBE" points="130,51 130,83 158,83 158,51" stroke="rgb(0%,0%,0%)" /><polygon fill="#C67C7B" points="48,51 48,106 80,106 80,51" stroke="rgb(0%,0%,0%)" /><polygon fill="#FFD274" points="130,118 130,190 183,190 183,118" stroke="rgb(0%,0%,0%)" /><polygon fill="#EE4D4D" points="80,51 80,103 77,106 48,106 48,127 81,127 84,130 84,190 130,190 130,51" stroke="rgb(0%,0%,0%)" /><polygon fill="#D3A2C7" points="143,188 143,192 183,192 183,188" stroke="rgb(0%,0%,0%)" /><polygon fill="#D3A2C7" points="156,83 156,103 160,103 160,83" stroke="rgb(0%,0%,0%)" /><polygon fill="#D3A2C7" points="55,108 55,104 79,104 79,108" stroke="rgb(0%,0%,0%)" /><polygon fill="#D3A2C7" points="79,53 79,49 99,49 99,53" stroke="rgb(0%,0%,0%)" /><polygon fill="#D3A2C7" points="128,51 128,71 132,71 132,51" stroke="rgb(0%,0%,0%)" /><polygon fill="#D3A2C7" points="128,119 128,135 132,135 132,119" stroke="rgb(0%,0%,0%)" /><polygon fill="#D3A2C7" points="128,87 128,103 132,103 132,87" stroke="rgb(0%,0%,0%)" /><polygon fill="#727171" points="50,107 50,127 46,127 46,107" stroke="rgb(0%,0%,0%)" /></svg>