<?xml version="1.0" ?><svg baseProfile="full" height="256" version="1.1" width="256" xmlns="http://www.w3.org/2000/svg" xmlns:ev="http://www.w3.org/2001/xml-events" xmlns:xlink="http://www.w3.org/1999/xlink"><defs/><polygon fill="#BEBEBE" points="127,212 127,231 177,231 177,212" stroke="rgb(0%,0%,0%)" stroke-width="4"/><polygon fill="#BFE3E8" points="65,212 65,231 127,231 127,212" stroke="rgb(0%,0%,0%)" stroke-width="4"/><polygon fill="#BEBEBE" points="161,100 161,154 191,154 191,100" stroke="rgb(0%,0%,0%)" stroke-width="4"/><polygon fill="#C67C7B" points="88,28 88,83 116,83 116,28" stroke="rgb(0%,0%,0%)" stroke-width="4"/><polygon fill="#FF8C69" points="116,28 116,83 161,83 161,28" stroke="rgb(0%,0%,0%)" stroke-width="4"/><polygon fill="#FFD274" points="65,154 65,212 110,212 110,154" stroke="rgb(0%,0%,0%)" stroke-width="4"/><polygon fill="#FFD274" points="110,154 110,212 177,212 177,154" stroke="rgb(0%,0%,0%)" stroke-width="4"/><polygon fill="#EE4D4D" points="88,83 88,96 85,99 65,99 65,154 161,154 161,83" stroke="rgb(0%,0%,0%)" stroke-width="4"/><polygon fill="#D3A2C7" points="75,210 75,214 107,214 107,210" stroke="rgb(0%,0%,0%)" stroke-width="0"/><polygon fill="#D3A2C7" points="135,210 135,214 175,214 175,210" stroke="rgb(0%,0%,0%)" stroke-width="0"/><polygon fill="#D3A2C7" points="95,85 95,81 115,81 115,85" stroke="rgb(0%,0%,0%)" stroke-width="0"/><polygon fill="#D3A2C7" points="118,24 118,31 114,31 114,24" stroke="rgb(0%,0%,0%)" stroke-width="0"/><polygon fill="#D3A2C7" points="120,85 120,81 135,81 135,85" stroke="rgb(0%,0%,0%)" stroke-width="0"/><polygon fill="#D3A2C7" points="118,23 118,31 114,31 114,23" stroke="rgb(0%,0%,0%)" stroke-width="0"/><polygon fill="#D3A2C7" points="159,95 159,115 163,115 163,95" stroke="rgb(0%,0%,0%)" stroke-width="0"/><polygon fill="#D3A2C7" points="83,152 83,156 107,156 107,152" stroke="rgb(0%,0%,0%)" stroke-width="0"/><polygon fill="#D3A2C7" points="127,152 127,156 147,156 147,152" stroke="rgb(0%,0%,0%)" stroke-width="0"/><polygon fill="#727171" points="67,115 67,135 63,135 63,115" stroke="rgb(0%,0%,0%)" stroke-width="0"/></svg>