<?xml version="1.0" encoding="utf-8" ?>
<svg baseProfile="full" height="256" version="1.1" width="256" xmlns="http://www.w3.org/2000/svg" xmlns:ev="http://www.w3.org/2001/xml-events" xmlns:xlink="http://www.w3.org/1999/xlink"><defs /><polygon fill="#BEBEBE" points="53,91 53,110 84,110 84,91" stroke="rgb(0%,0%,0%)" /><polygon fill="#BEBEBE" points="103,53 103,91 128,91 128,53" stroke="rgb(0%,0%,0%)" /><polygon fill="#C67C7B" points="84,51 84,91 103,91 103,53 102,53 101,52 92,52 91,51" stroke="rgb(0%,0%,0%)" /><polygon fill="#BFE3E8" points="144,208 144,227 194,227 194,208" stroke="rgb(0%,0%,0%)" /><polygon fill="#FFD274" points="53,110 53,158 84,158 84,110" stroke="rgb(0%,0%,0%)" /><polygon fill="#FF8C69" points="128,20 128,91 162,91 162,20" stroke="rgb(0%,0%,0%)" /><polygon fill="#FFD274" points="144,158 144,208 194,208 194,158" stroke="rgb(0%,0%,0%)" /><polygon fill="#EE4D4D" points="84,91 84,158 194,158 194,132 182,132 179,129 179,91" stroke="rgb(0%,0%,0%)" /><polygon fill="#D3A2C7" points="147,206 147,210 191,210 191,206" stroke="rgb(0%,0%,0%)" /><polygon fill="#D3A2C7" points="51,112 51,108 75,108 75,112" stroke="rgb(0%,0%,0%)" /><polygon fill="#D3A2C7" points="83,93 83,89 103,89 103,93" stroke="rgb(0%,0%,0%)" /><polygon fill="#D3A2C7" points="130,20 130,39 126,39 126,20" stroke="rgb(0%,0%,0%)" /><polygon fill="#D3A2C7" points="136,93 136,89 155,89 155,93" stroke="rgb(0%,0%,0%)" /><polygon fill="#D3A2C7" points="130,19 130,39 126,39 126,19" stroke="rgb(0%,0%,0%)" /><polygon fill="#D3A2C7" points="108,55 108,51 127,51 127,55" stroke="rgb(0%,0%,0%)" /><polygon fill="#D3A2C7" points="108,93 108,89 127,89 127,93" stroke="rgb(0%,0%,0%)" /><polygon fill="#D3A2C7" points="107,55 107,51 127,51 127,55" stroke="rgb(0%,0%,0%)" /><polygon fill="#D3A2C7" points="143,156 143,160 163,160 163,156" stroke="rgb(0%,0%,0%)" /><polygon fill="#D3A2C7" points="86,111 86,127 82,127 82,111" stroke="rgb(0%,0%,0%)" /><polygon fill="#727171" points="177,103 177,119 181,119 181,103" stroke="rgb(0%,0%,0%)" /></svg>