<?xml version="1.0" ?><svg baseProfile="full" height="256" version="1.1" width="256" xmlns="http://www.w3.org/2000/svg" xmlns:ev="http://www.w3.org/2001/xml-events" xmlns:xlink="http://www.w3.org/1999/xlink"><defs/><polygon fill="#BEBEBE" points="110,12 110,31 151,31 151,12" stroke="rgb(0%,0%,0%)" stroke-width="4"/><polygon fill="#BFE3E8" points="53,161 53,187 87,187 87,161" stroke="rgb(0%,0%,0%)" stroke-width="4"/><polygon fill="#C67C7B" points="160,100 160,140 187,140 187,100" stroke="rgb(0%,0%,0%)" stroke-width="4"/><polygon fill="#FF8C69" points="71,88 71,119 110,119 110,88" stroke="rgb(0%,0%,0%)" stroke-width="4"/><polygon fill="#FFD274" points="53,119 53,161 87,161 87,119" stroke="rgb(0%,0%,0%)" stroke-width="4"/><polygon fill="#FFD274" points="110,31 110,88 151,88 151,31" stroke="rgb(0%,0%,0%)" stroke-width="4"/><polygon fill="#BEBEBE" points="87,161 87,210 124,210 124,161" stroke="rgb(0%,0%,0%)" stroke-width="4"/><polygon fill="#EE4D4D" points="110,88 110,116 107,119 87,119 87,161 121,161 124,164 124,215 187,215 187,140 163,140 160,137 160,88" stroke="rgb(0%,0%,0%)" stroke-width="4"/><polygon fill="#D3A2C7" points="55,159 55,163 87,163 87,159" stroke="rgb(0%,0%,0%)" stroke-width="0"/><polygon fill="#D3A2C7" points="111,33 111,29 143,29 143,33" stroke="rgb(0%,0%,0%)" stroke-width="0"/><polygon fill="#D3A2C7" points="158,99 158,115 162,115 162,99" stroke="rgb(0%,0%,0%)" stroke-width="0"/><polygon fill="#D3A2C7" points="91,121 91,117 107,117 107,121" stroke="rgb(0%,0%,0%)" stroke-width="0"/><polygon fill="#D3A2C7" points="95,159 95,163 115,163 115,159" stroke="rgb(0%,0%,0%)" stroke-width="0"/><polygon fill="#D3A2C7" points="89,123 89,143 85,143 85,123" stroke="rgb(0%,0%,0%)" stroke-width="0"/><polygon fill="#D3A2C7" points="115,90 115,86 139,86 139,90" stroke="rgb(0%,0%,0%)" stroke-width="0"/><polygon fill="#727171" points="147,90 147,86 163,86 163,90" stroke="rgb(0%,0%,0%)" stroke-width="0"/></svg>